<?xml version="1.0" encoding="UTF-8"?>
<svg version="1.1" xmlns="http://www.w3.org/2000/svg" width="911" height="920">
<path d="M0 0 C300.63 0 601.26 0 911 0 C911 303.6 911 607.2 911 920 C610.37 920 309.74 920 0 920 C0 616.4 0 312.8 0 0 Z " fill="#FBFBFB" transform="translate(0,0)"/>
<path d="M0 0 C2.56458907 2.56458907 3.00556901 4.7119619 4.06640625 8.18359375 C4.26129135 8.81853256 4.45617645 9.45347137 4.65696716 10.10765076 C5.30010802 12.21527837 5.93212335 14.32602187 6.5625 16.4375 C6.78043213 17.16108704 6.99836426 17.88467407 7.22290039 18.63018799 C10.73485259 30.31290247 13.96020658 42.06113822 17 53.875 C17.18917999 54.60685516 17.37835999 55.33871033 17.57327271 56.09274292 C19.50821649 63.60863238 21.33726348 71.08829159 22.5078125 78.77001953 C22.90544329 81.01687765 22.90544329 81.01687765 23.99438477 82.94726562 C25.24210531 85.49420282 25.56924666 87.77911496 25.96484375 90.5859375 C26.12339844 91.67398682 26.28195312 92.76203613 26.4453125 93.88305664 C26.60773438 95.03539795 26.77015625 96.18773926 26.9375 97.375 C28.44314153 107.7692876 28.44314153 107.7692876 30.5 118.0625 C32.68079754 127.61534139 34.02974801 137.32625673 35.53125 147.00390625 C35.93715172 149.59829472 36.35459535 152.19021188 36.78125 154.78125 C37.55836727 159.51535875 38.28692521 164.2558528 39 169 C39.17063965 170.12067871 39.3412793 171.24135742 39.51708984 172.39599609 C46.26764633 217.34251463 46.26764633 217.34251463 36.0559082 235.12744141 C35.00681908 236.98790697 34.05701308 238.8733965 33.12109375 240.79296875 C30.55666919 245.97652726 27.67557977 250.97717041 24.8125 256 C23.64293754 258.05712589 22.47366756 260.1144181 21.3046875 262.171875 C20.73717773 263.17025391 20.16966797 264.16863281 19.58496094 265.19726562 C18.23305065 267.58788948 16.89549185 269.98512407 15.5703125 272.390625 C6.43226362 288.96131022 -3.88408454 304.69494057 -15 320 C-15.57572754 320.7950293 -16.15145508 321.59005859 -16.74462891 322.40917969 C-23.57325964 331.82046908 -30.44552375 341.15264359 -38 350 C-38.47759766 350.56106445 -38.95519531 351.12212891 -39.44726562 351.70019531 C-46.6179494 360.10766577 -53.97185603 368.32143416 -61.51171875 376.3984375 C-63.02677308 378.02881093 -64.53047566 379.66897848 -66.03125 381.3125 C-74.31500573 390.37548022 -82.69174284 399.29240769 -92.05078125 407.265625 C-94.23976394 409.21333705 -96.268079 411.27630233 -98.3125 413.375 C-102.31280015 417.42308531 -106.55285027 421.00341422 -110.9921875 424.55859375 C-114.32614979 427.26473198 -117.5688001 430.06214611 -120.8125 432.875 C-126.55235222 437.83107524 -132.43781527 442.55947417 -138.42578125 447.2109375 C-141.54611644 449.63585416 -144.6305186 452.10287894 -147.70825195 454.58154297 C-154.12610729 459.74950647 -160.60679557 464.80726723 -167.23876953 469.69970703 C-169.28591899 471.21109018 -171.32832462 472.72879578 -173.37109375 474.24609375 C-181.73174596 480.44366274 -190.14143207 486.55849201 -198.66162109 492.53491211 C-203.74530292 496.1031636 -208.78585123 499.72693558 -213.8125 503.375 C-222.62243216 509.76050457 -231.52847368 516.00344864 -240.45458984 522.22509766 C-244.70223253 525.18695861 -248.94503712 528.15572631 -253.1875 531.125 C-254.01789795 531.70612549 -254.8482959 532.28725098 -255.70385742 532.88598633 C-263.12598796 538.08286393 -270.52949758 543.30580919 -277.92773438 548.53662109 C-280.0177979 550.0125684 -282.11013089 551.48524322 -284.203125 552.95703125 C-304.84741257 567.48096204 -325.2270992 582.30525999 -345 598 C-345.66 597.67 -346.32 597.34 -347 597 C-308.4407139 560.68136001 -308.4407139 560.68136001 -292.625 546.125 C-286.14576828 540.15913359 -279.73672952 534.11966324 -273.328125 528.078125 C-269.20455251 524.19081808 -265.07253818 520.31260406 -260.9375 516.4375 C-260.28450928 515.82503418 -259.63151855 515.21256836 -258.95874023 514.58154297 C-255.59906306 511.4312496 -252.23477929 508.28607899 -248.86328125 505.1484375 C-241.71684708 498.48839658 -234.67108598 491.76922918 -227.84375 484.78125 C-225.76898183 482.75208113 -223.70624151 480.87265179 -221.50390625 478.99609375 C-215.81604653 474.06840607 -210.55444532 468.70358408 -205.24536133 463.37573242 C-203.44137915 461.56639067 -201.63211335 459.76245681 -199.82226562 457.95898438 C-194.52977969 452.6692309 -189.31626339 447.37947652 -184.46118164 441.67944336 C-182.11201806 438.97937715 -179.56106076 436.49700242 -177 434 C-173.07026335 430.11831306 -169.28269322 426.18866516 -165.69921875 421.98046875 C-163.71969568 419.67330048 -161.6735788 417.43353218 -159.625 415.1875 C-155.76660467 410.91338531 -152.11773814 406.50555086 -148.5 402.02734375 C-146.18091617 399.21907817 -143.80405274 396.47907836 -141.39697266 393.74682617 C-134.38577421 385.77842142 -127.85504472 377.52377653 -121.50830078 369.01855469 C-120.1382375 367.18500285 -118.7563824 365.36111581 -117.37109375 363.5390625 C-104.1082514 345.93980324 -91.86170455 327.3447509 -81.16308594 308.08203125 C-80.0472337 306.08455268 -78.90764318 304.10307283 -77.7578125 302.125 C-67.6183733 284.58651057 -57.53570236 266.01997901 -50.6953125 246.9140625 C-49.9327094 244.81476184 -49.09540741 242.75484081 -48.25 240.6875 C-41.72486966 224.37467416 -36.20947747 207.77440959 -31 191 C-30.56010742 189.58726807 -30.56010742 189.58726807 -30.11132812 188.14599609 C-27.34833416 179.23326672 -24.66557937 170.35312123 -22.73828125 161.21484375 C-22.09079859 158.39538222 -21.33751352 155.64479873 -20.546875 152.86328125 C-18.94311416 147.04515778 -17.89561531 141.20372067 -16.9375 135.25 C-16.61698741 133.27543651 -16.29285418 131.30145682 -15.96484375 129.328125 C-15.75782837 128.04276855 -15.75782837 128.04276855 -15.54663086 126.73144531 C-15 124 -15 124 -14.01147461 120.61352539 C-13.00524215 117.01872774 -12.37986261 113.54890951 -11.8515625 109.85546875 C-11.70553841 108.84345901 -11.70553841 108.84345901 -11.55656433 107.81100464 C-11.24033801 105.60393682 -10.93213684 103.39584982 -10.625 101.1875 C-10.51739349 100.4244455 -10.40978699 99.66139099 -10.29891968 98.87521362 C-7.91420387 81.94985843 -5.87938036 64.98821482 -4 48 C-3.89059082 47.02047363 -3.78118164 46.04094727 -3.66845703 45.03173828 C-2.01441366 30.05609097 -1.01310734 15.03047347 0 0 Z " fill="#131313" transform="translate(682,63)"/>
<path d="M0 0 C0.33 0 0.66 0 1 0 C1.14535658 6.26633113 0.59418245 12.24283339 -0.2421875 18.44921875 C-0.43483688 19.91268486 -0.43483688 19.91268486 -0.63137817 21.40571594 C-0.90283828 23.45580291 -1.1769606 25.50553894 -1.45361328 27.55493164 C-1.87496256 30.68722165 -2.28366822 33.82099068 -2.69140625 36.95507812 C-2.95757248 38.9532265 -3.22447426 40.95127706 -3.4921875 42.94921875 C-3.6131076 43.88263596 -3.73402771 44.81605316 -3.85861206 45.77775574 C-4.46048174 50.16602887 -5.19623812 53.92340635 -7 58 C-7.33672552 59.57209961 -7.62222326 61.15592385 -7.859375 62.74609375 C-8.0022998 63.65415771 -8.14522461 64.56222168 -8.29248047 65.49780273 C-8.44346191 66.46790283 -8.59444336 67.43800293 -8.75 68.4375 C-10.37110177 78.28012605 -12.67755485 87.74822314 -15.4140625 97.33203125 C-17.47861094 104.58103271 -19.23813467 111.90558121 -20.99560547 119.23413086 C-21.22908691 120.1906958 -21.46256836 121.14726074 -21.703125 122.1328125 C-22.00718262 123.39955811 -22.00718262 123.39955811 -22.31738281 124.69189453 C-23.97927094 130.31116864 -23.97927094 130.31116864 -26.8215332 132.22924805 C-27.55718506 132.56996338 -28.29283691 132.91067871 -29.05078125 133.26171875 C-29.88424072 133.65399658 -30.7177002 134.04627441 -31.57641602 134.45043945 C-32.93077759 135.06278442 -32.93077759 135.06278442 -34.3125 135.6875 C-35.71036743 136.33561646 -35.71036743 136.33561646 -37.13647461 136.99682617 C-50.0774184 142.95111496 -63.21425735 148.45888653 -76.3828125 153.88671875 C-79.11986146 155.05098584 -81.80703008 156.29993195 -84.5 157.5625 C-89.27435838 159.76076573 -94.1164517 161.43787324 -99.1171875 163.04296875 C-101.69167107 163.89764148 -104.18038856 164.84241004 -106.6875 165.875 C-113.05751057 168.46871725 -119.54290733 170.71795824 -126.03857422 172.97216797 C-128.25173918 173.74029859 -130.46418838 174.51049203 -132.67626953 175.28173828 C-136.13956618 176.48912196 -139.60456675 177.69152134 -143.07049561 178.8913269 C-144.45979072 179.37280368 -145.84868068 179.85545142 -147.23712158 180.33938599 C-155.39636711 183.18099972 -163.56314779 185.79266873 -171.8894043 188.11523438 C-176.58324749 189.4503327 -181.18151525 191.02587547 -185.79101562 192.62304688 C-196.65753736 196.32593775 -207.74608565 199.37244174 -218.7890625 202.5 C-219.51657211 202.7060939 -220.24408173 202.91218781 -220.99363708 203.12452698 C-223.94476305 203.95994665 -226.89595316 204.79508565 -229.84863281 205.625 C-238.88804066 208.1679543 -247.8289662 210.88157732 -256.72216797 213.89746094 C-260.7056625 215.23735825 -264.71187409 216.46227114 -268.75 217.625 C-269.45825928 217.8317334 -270.16651855 218.0384668 -270.89624023 218.25146484 C-275.71485554 219.65107175 -280.54917707 220.98098714 -285.41015625 222.2265625 C-287.53240848 222.86035728 -289.61854863 223.61391746 -291.68945312 224.39941406 C-295.60201568 225.87548759 -299.55917026 227.16397686 -303.55859375 228.3828125 C-304.99798452 228.82714884 -306.4372708 229.27182376 -307.87646484 229.71679688 C-308.62031433 229.94616943 -309.36416382 230.17554199 -310.1305542 230.41186523 C-325.58418245 235.18896904 -340.85054851 240.32382524 -356 246 C-357.90329415 246.70750465 -359.80658883 247.4150079 -361.7098999 248.12246704 C-364.35130414 249.10611519 -366.99063167 250.09522844 -369.62921143 251.08642578 C-371.50529019 251.79101404 -373.38227017 252.49320124 -375.25927734 253.1953125 C-380.71630543 255.26314262 -386.00630685 257.39627803 -391.17797852 260.09985352 C-395.06011296 262.01777254 -399.18835271 263.35348915 -403.26367188 264.79882812 C-406.10818638 265.83095706 -408.77108389 266.86113684 -411.36328125 268.43359375 C-413.76490607 269.86033679 -415.9992694 270.84090242 -418.59375 271.8515625 C-424.3584353 274.10166307 -429.92478648 276.69357928 -435.5 279.375 C-437.10294922 280.14577881 -437.10294922 280.14577881 -438.73828125 280.93212891 C-446.91978308 284.90739588 -454.98469282 289.07648687 -463 293.375 C-464.60004883 294.23037354 -464.60004883 294.23037354 -466.23242188 295.10302734 C-472.38010985 298.43708577 -478.26433773 301.99698571 -484 306 C-484.66 305.67 -485.32 305.34 -486 305 C-478.37028668 297.74521116 -470.16902691 291.40512027 -461.75878906 285.09472656 C-459.60690232 283.4608161 -457.47169378 281.81087905 -455.34277344 280.14746094 C-445.46498902 272.45913995 -435.32098461 265.30537921 -424.87890625 258.40527344 C-422.36501603 256.74339983 -419.85793188 255.07162687 -417.3515625 253.3984375 C-407.71992317 246.98991971 -397.97051278 240.86509435 -388 235 C-386.21114083 233.92500336 -384.42327327 232.84835369 -382.63671875 231.76953125 C-369.68743319 224.01103429 -356.49151851 216.79203416 -343.16894531 209.69775391 C-339.15199995 207.54568626 -335.15757524 205.35404598 -331.16430664 203.15844727 C-323.5976571 198.99861131 -316.0135383 194.91971588 -308.26113892 191.11621094 C-303.83981257 188.94119025 -299.46957818 186.68207269 -295.11260986 184.38119507 C-283.6060439 178.31280458 -271.99849355 172.45711539 -260.359375 166.6484375 C-259.11500073 166.02733471 -259.11500073 166.02733471 -257.84548759 165.39368439 C-251.81507515 162.38461134 -245.78273096 159.37942143 -239.75 156.375 C-233.6913719 153.35764562 -227.63347898 150.33883207 -221.57727814 147.31660843 C-219.20403664 146.13314248 -216.82957373 144.95215612 -214.45501709 143.77133179 C-203.55223596 138.3382646 -192.76006022 132.70993692 -182 127 C-180.76287156 126.34505824 -179.52567945 125.69023671 -178.28840637 125.03556824 C-163.62500701 117.26886518 -149.18941815 109.17551194 -134.91259766 100.72021484 C-131.99371236 98.99628644 -129.06646737 97.28742192 -126.13671875 95.58203125 C-115.51162474 89.38120402 -105.15424134 82.94193987 -95 76 C-93.04294519 74.70639702 -91.08465306 73.41466357 -89.125 72.125 C-63.21094412 54.83732121 -38.58286467 35.6814186 -15.7265625 14.5078125 C-12.76189006 11.78099343 -9.73419835 9.13803086 -6.6875 6.50390625 C-5.08382031 5.07470097 -3.56605179 3.59595197 -2.0625 2.0625 C-1.381875 1.381875 -0.70125 0.70125 0 0 Z " fill="#131313" transform="translate(725,477)"/>
<path d="M0 0 C0.22988235 15.97328685 0.08140748 31.73181447 -1.63623047 47.62060547 C-1.90152831 50.08520457 -2.15862924 52.54978865 -2.40673828 55.01611328 C-5.22567711 82.99354984 -8.81118582 110.75767067 -16 138 C-16.28166016 139.06831055 -16.56332031 140.13662109 -16.85351562 141.23730469 C-18.60690145 147.85474049 -20.38709811 154.4645244 -22.19995117 161.06591797 C-22.69890964 162.89578764 -23.19003534 164.72783327 -23.66918945 166.56298828 C-25.85247363 174.85263298 -28.48835429 182.99232909 -31.13354492 191.14355469 C-31.9375755 193.62523304 -32.73358749 196.10939296 -33.52929688 198.59375 C-38.05497025 212.62505223 -38.05497025 212.62505223 -41.19311523 219.25390625 C-42.38199414 221.82663302 -43.21998029 224.48487185 -44.0625 227.1875 C-45.41280079 231.35399231 -46.97139183 235.11183435 -49 239 C-49.98723095 241.36935429 -50.92642211 243.75549704 -51.86743164 246.14355469 C-56.70222473 258.33736351 -62.18942378 270.20320309 -67.7097168 282.09667969 C-68.83073968 284.51399783 -69.94940994 286.93238128 -71.06640625 289.3515625 C-71.60619614 290.51936249 -71.60619614 290.51936249 -72.15689087 291.71075439 C-73.86183444 295.42433915 -75.48046727 299.12776435 -76.90234375 302.9609375 C-78.99894086 308.35501816 -81.77841469 313.36397779 -84.50218201 318.45967102 C-88.75786984 326.45710563 -92.80984625 334.54945456 -96.84375 342.66015625 C-97.55082949 344.08012515 -98.25794239 345.5000774 -98.96508789 346.92001343 C-101.87917344 352.7739485 -104.78933467 358.62982712 -107.69580078 364.48754883 C-122.64318286 394.60424983 -122.64318286 394.60424983 -130.97833252 409.19491577 C-133.81189475 414.2012594 -136.48219731 419.29870225 -139.1875 424.375 C-140.13728449 426.15253307 -141.08707182 427.93006462 -142.03700256 429.70751953 C-143.01793738 431.54339024 -143.99825511 433.37958949 -144.97851562 435.21582031 C-148.12092334 441.10044879 -151.2732197 446.97978337 -154.42446899 452.85968018 C-156.03202758 455.8593908 -157.63903853 458.85939468 -159.24609375 461.859375 C-160.1640625 463.57291667 -161.08203125 465.28645833 -162 467 C-163.03589561 463.81934387 -162.94620009 461.93252582 -161.9609375 458.75390625 C-161.70957031 457.91408203 -161.45820313 457.07425781 -161.19921875 456.20898438 C-160.79123047 454.89897461 -160.79123047 454.89897461 -160.375 453.5625 C-158.18972086 446.4688348 -156.33122136 439.33740902 -154.63671875 432.11328125 C-152.30626271 422.17856967 -149.78027589 412.30501785 -147.17892456 402.43817139 C-145.87385015 397.48635539 -144.57746702 392.53226573 -143.28125 387.578125 C-143.01348251 386.55500214 -142.74571503 385.53187927 -142.46983337 384.47775269 C-139.41493912 372.78812784 -136.42239972 361.08266058 -133.4375 349.375 C-133.18410858 348.38171692 -132.93071716 347.38843384 -132.66964722 346.36505127 C-127.72313536 327.09264672 -127.72313536 327.09264672 -123.0625 307.75 C-121.79301785 302.29445994 -120.459511 296.86218385 -119.0625 291.4375 C-115.43863868 277.17977422 -112.28173195 262.68834547 -110.359375 248.09765625 C-110 246 -110 246 -109 245 C-108.74887859 243.49402506 -108.55552643 241.9783453 -108.38671875 240.4609375 C-108.27513428 239.49921631 -108.1635498 238.53749512 -108.04858398 237.54663086 C-107.86984741 235.97667358 -107.86984741 235.97667358 -107.6875 234.375 C-106.56839114 224.94776272 -105.17284719 215.61561631 -103.44604492 206.28076172 C-100.60490368 190.76187453 -99.30888191 175.29233131 -98.375 159.5625 C-98.3092981 158.47228546 -98.24359619 157.38207092 -98.17590332 156.25881958 C-97.29113074 141.31501069 -96.72787542 126.40797674 -96.75 111.4375 C-96.74920441 110.61795837 -96.74840881 109.79841675 -96.74758911 108.95404053 C-96.7498582 101.04438785 -96.90015237 93.23646892 -97.69140625 85.359375 C-99.29645223 68.95817436 -99.29645223 68.95817436 -95.76953125 64.5390625 C-93.13453485 61.99764704 -90.16580151 60.14572657 -87.02685547 58.28710938 C-83.29184386 55.91527353 -80.04377143 52.93254483 -76.6875 50.0625 C-56.15591272 33.11873495 -34.23193151 18.05417799 -10.96435547 5.10351562 C-9.63270771 4.3554361 -8.30893525 3.59319468 -6.99267578 2.81835938 C-2.20368597 0 -2.20368597 0 0 0 Z " fill="#121212" transform="translate(359,317)"/>
<path d="M0 0 C-0.43334173 7.05301018 -1.48222166 13.89695724 -2.84521484 20.82128906 C-3.71192077 25.28550413 -4.38759672 29.73293736 -4.9375 34.25 C-6.50662446 46.60685513 -9.0708396 58.85239849 -12.2265625 70.8984375 C-13.01531977 74.06143384 -13.7012587 77.23499294 -14.37792969 80.42333984 C-16.20150669 88.95904163 -18.50699329 97.23312505 -21.21240234 105.53222656 C-22.15624822 108.48957129 -23.05772981 111.45849571 -23.95703125 114.4296875 C-24.30411133 115.57373047 -24.65119141 116.71777344 -25.00878906 117.89648438 C-25.69444836 120.15998616 -26.37752871 122.4242713 -27.05761719 124.68945312 C-28.83934888 130.53837454 -30.7951457 136.22972665 -33.12719727 141.88232422 C-34.14552816 144.35309405 -35.05222391 146.85379897 -35.9375 149.375 C-38.08347465 155.33979567 -40.51766184 161.168609 -43 167 C-43.7425 168.7634375 -43.7425 168.7634375 -44.5 170.5625 C-46.18635155 174.42705565 -47.9463523 178.25478271 -49.70703125 182.0859375 C-50.91242212 184.80261904 -51.98860609 187.54193357 -53.0625 190.3125 C-57.18285071 200.28400706 -62.7173822 209.6112426 -68 219 C-68.47276367 219.84079102 -68.94552734 220.68158203 -69.43261719 221.54785156 C-84.25241652 247.78047856 -100.72883369 273.24952513 -119.37451172 296.93017578 C-121.12724142 299.16202355 -122.86362935 301.40593807 -124.59765625 303.65234375 C-133.50434559 315.18088479 -142.61931415 326.46612602 -152.19677734 337.44506836 C-155.43073892 341.15990761 -158.59351113 344.91673945 -161.6875 348.75 C-165.46908773 353.42340641 -169.47542225 357.84447692 -173.546875 362.265625 C-175.87716268 364.86307942 -178.07247168 367.52405714 -180.25 370.25 C-185.0948785 376.25455687 -190.35917212 381.82402682 -195.6484375 387.43359375 C-199.06875788 391.06111946 -202.40435206 394.75914487 -205.7265625 398.4765625 C-208.45837711 401.50878284 -211.22721248 404.50528545 -214 407.5 C-220.19243926 414.19244382 -226.34050275 420.92173394 -232.3125 427.8125 C-235.93877649 431.9772491 -239.69313718 436.01945656 -243.4453125 440.0703125 C-250.42044833 447.60485772 -257.26592563 455.24946158 -264 463 C-265.00257937 464.14845914 -266.00518608 465.29689443 -267.0078125 466.4453125 C-272.75020036 473.03485476 -278.40108266 479.67202038 -283.8984375 486.46875 C-285.9894717 488.98731907 -288.1604155 491.40228082 -290.375 493.8125 C-295.3526251 499.28874731 -299.88084437 505.08375012 -304.40234375 510.93457031 C-306.20086134 513.25967099 -308.00625191 515.57933753 -309.8125 517.8984375 C-313.21161989 522.2630761 -316.60697931 526.63061877 -320 531 C-320 527.71524363 -319.67160469 527.16995985 -317.83203125 524.62109375 C-317.35773682 523.9566626 -316.88344238 523.29223145 -316.39477539 522.60766602 C-315.87262451 521.89151123 -315.35047363 521.17535645 -314.8125 520.4375 C-314.27294678 519.685896 -313.73339355 518.93429199 -313.17749023 518.15991211 C-311.45829687 515.76841126 -309.72945834 513.38408459 -308 511 C-306.92126396 509.50304431 -305.84312606 508.00565738 -304.765625 506.5078125 C-302.61151767 503.51606984 -300.45237722 500.52806002 -298.2890625 497.54296875 C-296.09005624 494.50839238 -293.89757877 491.46927928 -291.7109375 488.42578125 C-286.07890482 480.59195273 -280.3921422 472.80745079 -274.58520508 465.10229492 C-268.92400605 457.58699544 -263.35545941 450.00397141 -257.78222656 442.42333984 C-255.43867626 439.2367535 -253.09217267 436.05234918 -250.74536133 432.86816406 C-249.58093608 431.28823331 -248.41671109 429.70815495 -247.25268555 428.12792969 C-244.32605558 424.15493656 -241.39739887 420.18346582 -238.46484375 416.21484375 C-227.29065255 401.08682678 -216.19036987 385.92149981 -205.61376953 370.36767578 C-203.7583334 367.64543379 -201.89273914 364.9302704 -200.02734375 362.21484375 C-174.90466628 325.56758191 -150.87059496 287.69254544 -132.11181641 247.35253906 C-130.70897467 244.38420727 -129.20564745 241.47326334 -127.6875 238.5625 C-125.09022939 233.45029302 -123.08716022 228.17914306 -121.1784668 222.77954102 C-119.98368519 219.43661775 -118.67599065 216.28539132 -117.03125 213.13671875 C-114.70629715 208.60454612 -113.16977522 203.90614966 -111.625 199.0625 C-111.01568417 197.18966074 -110.40498898 195.31726974 -109.79296875 193.4453125 C-109.49181152 192.52266602 -109.1906543 191.60001953 -108.88037109 190.64941406 C-107.63059134 186.88829096 -106.28524902 183.16433843 -104.9375 179.4375 C-100.05047464 165.76066172 -96.01834236 151.87361569 -92.859375 137.69921875 C-92.02105196 134.09061912 -91.04224369 130.5544247 -90 127 C-87.70023843 118.96889545 -86.30249397 110.92891828 -85.12304688 102.67431641 C-84.28573815 96.82074752 -83.35961978 91.00790011 -82.15136719 85.21704102 C-81.19471914 80.29075586 -80.8813711 75.52218559 -80.73046875 70.50390625 C-79.8803583 50.41211676 -79.8803583 50.41211676 -74.93701172 44.55615234 C-69.58510347 40.38590201 -63.47700145 37.91470746 -57.22070312 35.39990234 C-51.80780356 33.04714566 -46.91935911 29.89316796 -41.9375 26.75 C-40.01889666 25.57052811 -38.09964753 24.39210592 -36.1796875 23.21484375 C-25.95605252 16.88284559 -15.92036975 10.34242321 -6.06274414 3.45239258 C-1.10344808 0 -1.10344808 0 0 0 Z " fill="#131313" transform="translate(570,193)"/>
<path d="M0 0 C0 0.66 0 1.32 0 2 C-1.29956055 3.27392578 -1.29956055 3.27392578 -3.19921875 4.8203125 C-7.01616716 8.06560006 -10.56614659 11.49210786 -14.08203125 15.0546875 C-14.62584442 15.60417053 -15.16965759 16.15365356 -15.72994995 16.7197876 C-17.9913457 19.0080357 -20.24877447 21.30010916 -22.5012207 23.59716797 C-29.67641209 30.90475065 -36.94023604 37.66190546 -45 44 C-46.20917939 44.99974786 -47.41537252 46.00312997 -48.6171875 47.01171875 C-55.72368272 52.88370196 -63.08710898 58.24891703 -70.75 63.375 C-71.60062012 63.94565186 -72.45124023 64.51630371 -73.32763672 65.10424805 C-91.33824954 76.97874755 -91.33824954 76.97874755 -99.1875 76.125 C-99.8683667 76.06054688 -100.5492334 75.99609375 -101.25073242 75.9296875 C-103.84106064 75.66618055 -106.41804809 75.33602519 -109 75 C-111.50260064 74.68486782 -114.00520513 74.3697662 -116.5078125 74.0546875 C-120.7027759 73.52430107 -124.89705438 72.98928972 -129.09008789 72.44384766 C-137.02683002 71.42200163 -144.88587652 70.674063 -152.88696289 70.43139648 C-160.7371512 70.13413095 -168.50828222 69.21667523 -176.30911255 68.33706665 C-194.88257263 66.24780493 -213.41460022 65.051539 -232.0874176 64.29962158 C-235.7901139 64.1489609 -239.48818373 63.97851652 -243.1862793 63.73901367 C-259.58525419 62.69562179 -276.01176509 62.71359895 -292.4375 62.6875 C-293.23568272 62.68576027 -294.03386543 62.68402054 -294.8562355 62.68222809 C-328.99538719 62.61666298 -363.22087467 63.62053582 -397 69 C-394.34045105 66.34045105 -391.33936475 65.60223549 -387.84375 64.4609375 C-387.11843079 64.21910736 -386.39311157 63.97727722 -385.64581299 63.7281189 C-383.2660299 62.9370585 -380.8832882 62.15543169 -378.5 61.375 C-376.84535468 60.82982218 -375.19073245 60.28457428 -373.53613281 59.73925781 C-369.43347976 58.39047337 -365.32750072 57.05219603 -361.21948242 55.71984863 C-359.23499745 55.07621714 -357.25123839 54.43034845 -355.26757812 53.78417969 C-330.78791931 45.85750172 -305.33347498 38.79078539 -279.9375 34.5625 C-274.66983384 33.67448157 -269.42934374 32.69867097 -264.19775391 31.6184082 C-252.68119372 29.24447245 -241.11940065 27.29463233 -229.5 25.5 C-228.05181381 25.27455505 -228.05181381 25.27455505 -226.57437134 25.04455566 C-209.70976198 22.4302949 -192.82724955 20.36761503 -175.85340881 18.62246704 C-169.65831884 17.97982732 -163.4869591 17.18880354 -157.3125 16.375 C-148.59972907 15.24307815 -139.89630677 14.47982779 -131.13500977 13.83935547 C-120.29328643 13.01276278 -109.51179115 11.73508382 -98.71484375 10.46777344 C-89.55705242 9.39460945 -80.39998776 8.40080331 -71.21386719 7.59570312 C-68.17146522 7.32544232 -65.16953543 7.02984943 -62.16015625 6.5 C-58.41154421 5.90689451 -54.68678989 5.66189116 -50.90209961 5.40380859 C-39.38063963 4.61316391 -28.06644567 3.257652 -16.68066406 1.32104492 C-11.02598287 0.37636477 -5.73407646 -0.20650936 0 0 Z " fill="#131313" transform="translate(630,742)"/>
<path d="M0 0 C0.33 0 0.66 0 1 0 C2.49653225 14.82866828 3.31116577 29.48990229 3.30078125 44.390625 C3.30576114 46.37359749 3.31124794 48.35656876 3.31719971 50.33953857 C3.32907496 55.56911265 3.32590526 60.79856042 3.3172493 66.02813721 C3.31246922 69.27087798 3.31141052 72.51360363 3.31100464 75.75634766 C3.276933 151.38718755 3.276933 151.38718755 -0.51586914 183.52490234 C-1.07244494 188.33543746 -1.30267414 193.13966842 -1.5 197.9765625 C-1.54060547 198.90487885 -1.58121094 199.83319519 -1.62304688 200.78964233 C-1.75154583 203.73464687 -1.87609343 206.67979897 -2 209.625 C-2.16448327 213.49228448 -2.33107219 217.3594696 -2.5 221.2265625 C-2.54088745 222.16719543 -2.5817749 223.10782837 -2.62390137 224.07696533 C-2.85823283 229.31601326 -3.15493968 234.54272399 -3.53125 239.7734375 C-4.17877452 248.95386815 -4.34706284 258.14355548 -4.55224609 267.34228516 C-4.60429048 269.62412104 -4.66131777 271.90579431 -4.71875 274.1875 C-4.73232544 274.86989746 -4.74590088 275.55229492 -4.7598877 276.25537109 C-4.87100908 280.58776647 -5.31606188 284.73023249 -6 289 C-10.20703202 284.79296798 -10.48135712 277.86558478 -11.4375 272.1640625 C-11.56382812 271.42926666 -11.69015625 270.69447083 -11.8203125 269.93740845 C-12.08490036 268.39513218 -12.34773839 266.85255477 -12.60888672 265.30969238 C-12.98659976 263.07913421 -13.3694526 260.84952233 -13.75390625 258.62011719 C-20.25974572 220.79245361 -20.25974572 220.79245361 -22 204 C-22.13535156 202.70126953 -22.27070313 201.40253906 -22.41015625 200.06445312 C-26.96505181 155.18553415 -29.47000602 104.6941238 -17.5 60.75 C-16.14722029 55.5811628 -14.81031276 50.46369247 -13.9375 45.1875 C-12.1131227 34.45684445 -8.79342978 24.12182517 -5.375 13.8125 C-5.07376221 12.90322754 -4.77252441 11.99395508 -4.4621582 11.05712891 C-3.17159941 7.22752425 -1.87730429 3.58722833 0 0 Z " fill="#161616" transform="translate(180,507)"/>
<path d="M0 0 C5.88951754 1.01963894 11.81077302 1.81078521 17.73657227 2.58740234 C21.43626196 3.08932103 25.01999852 3.70223793 28.63769531 4.63427734 C31.37153123 5.33221639 33.62190952 5.74717399 36.38769531 5.95068359 C43.22065444 6.63630364 49.74636412 8.68651611 56.32519531 10.57568359 C57.18902832 10.82044434 58.05286133 11.06520508 58.94287109 11.31738281 C61.69843411 12.1014148 64.44979066 12.89875838 67.20019531 13.70068359 C68.08682861 13.95422607 68.97346191 14.20776855 69.88696289 14.46899414 C70.70962646 14.71302979 71.53229004 14.95706543 72.37988281 15.20849609 C73.11706543 15.42393066 73.85424805 15.63936523 74.61376953 15.86132812 C76.32519531 16.57568359 76.32519531 16.57568359 77.32519531 18.57568359 C74.16021371 19.06640347 70.99297204 19.54087292 67.82519531 20.01318359 C66.95765625 20.14789062 66.09011719 20.28259766 65.19628906 20.42138672 C49.33138441 22.76117481 33.38808669 22.78158045 17.38769531 22.76318359 C16.33139923 22.76224701 15.27510315 22.76131042 14.1867981 22.76034546 C-22.63904447 22.68993806 -59.70529497 20.34515166 -95.76464844 12.41552734 C-100.46825112 11.40526303 -105.18592903 10.69502225 -109.94433594 10.00146484 C-113.0598307 9.51564377 -116.10325768 8.8613107 -119.17089844 8.13818359 C-122.47091915 7.39683729 -125.79088368 6.77653478 -129.11230469 6.13818359 C-134.34905434 5.10654391 -139.36615439 3.82926769 -144.44433594 2.20458984 C-147.83381745 1.24888665 -151.17286735 0.89993705 -154.67480469 0.57568359 C-153.67480469 -1.42431641 -153.67480469 -1.42431641 -151.95776367 -2.21655273 C-106.52370677 -17.07200828 -46.29749953 -8.33407202 0 0 Z " fill="#141414" transform="translate(342.6748046875,836.42431640625)"/>
<path d="M0 0 C0.33 0.66 0.66 1.32 1 2 C1.66 2.33 2.32 2.66 3 3 C2.46632813 3.57105469 1.93265625 4.14210938 1.3828125 4.73046875 C-4.35693367 10.97666311 -9.58515801 17.50258779 -14.68994141 24.26953125 C-16.98285566 27.29826331 -19.30579735 30.30388315 -21.625 33.3125 C-22.47148202 34.41266205 -23.31784848 35.51291305 -24.1640625 36.61328125 C-24.76992187 37.40089844 -25.37578125 38.18851563 -26 39 C-26 35.71524363 -25.67160469 35.16995985 -23.83203125 32.62109375 C-23.35677002 31.95529297 -22.88150879 31.28949219 -22.3918457 30.60351562 C-21.87066162 29.88873047 -21.34947754 29.17394531 -20.8125 28.4375 C-20.28164795 27.69822266 -19.7507959 26.95894531 -19.20385742 26.19726562 C-18.0687671 24.61864344 -16.93038771 23.04238205 -15.7890625 21.46826172 C-13.96669355 18.9540491 -12.15423387 16.43293787 -10.34375 13.91015625 C-8.07241778 10.75013623 -5.80007773 7.59087861 -3.51953125 4.4375 C-3.05651611 3.79683594 -2.59350098 3.15617188 -2.11645508 2.49609375 C-1 1 -1 1 0 0 Z " fill="#383838" transform="translate(276,685)"/>
<path d="M0 0 C0.66 0.33 1.32 0.66 2 1 C-0.97 3.97 -0.97 3.97 -4 7 C-3.67 7.66 -3.34 8.32 -3 9 C-3.80824219 9.60328125 -4.61648438 10.2065625 -5.44921875 10.828125 C-6.52867842 11.6353731 -7.60810367 12.44266722 -8.6875 13.25 C-9.74324219 14.03890625 -10.79898437 14.8278125 -11.88671875 15.640625 C-14.62824018 17.71826483 -17.3257768 19.83680647 -20 22 C-20.66 21.67 -21.32 21.34 -22 21 C-21.26680542 20.31224487 -21.26680542 20.31224487 -20.51879883 19.6105957 C-18.28257715 17.51206915 -16.04753026 15.4122954 -13.8125 13.3125 C-13.04357422 12.59126953 -12.27464844 11.87003906 -11.48242188 11.12695312 C-7.59534182 7.47343152 -3.74211077 3.80210453 0 0 Z " fill="#444444" transform="translate(357,639)"/>
<path d="M0 0 C0.66 0.33 1.32 0.66 2 1 C-2.62 5.62 -7.24 10.24 -12 15 C-12 12 -12 12 -9.375 9.08203125 C-8.25750594 7.98449244 -7.13214357 6.89492105 -6 5.8125 C-5.42765625 5.25369141 -4.8553125 4.69488281 -4.265625 4.11914062 C-2.85037212 2.73926907 -1.42602845 1.36873266 0 0 Z M-16 17 C-15.01 17.66 -14.02 18.32 -13 19 C-14.8125 20.5625 -14.8125 20.5625 -17 22 C-17.99 21.67 -18.98 21.34 -20 21 C-18.68 19.68 -17.36 18.36 -16 17 Z " fill="#272727" transform="translate(372,625)"/>
<path d="M0 0 C0.33 0 0.66 0 1 0 C1.0272367 2.52090778 1.04695207 5.04151457 1.0625 7.5625 C1.07087891 8.26697266 1.07925781 8.97144531 1.08789062 9.69726562 C1.10882603 14.24024798 0.74800682 18.51784892 0 23 C-2.73704754 20.26295246 -3.16182449 17.73955226 -4 14 C-3.625 11.5625 -3.625 11.5625 -3 10 C-3 10.66 -3 11.32 -3 12 C-2.01 12 -1.02 12 0 12 C0 8.04 0 4.08 0 0 Z " fill="#585858" transform="translate(174,773)"/>
<path d="M0 0 C0.66 0.33 1.32 0.66 2 1 C-2.23579689 6.33445671 -6.58598211 11.30168902 -13 14 C-13.66 13.67 -14.32 13.34 -15 13 C-13.43910974 11.58155991 -11.8762111 10.16532975 -10.3125 8.75 C-9.44238281 7.96109375 -8.57226562 7.1721875 -7.67578125 6.359375 C-5.17579137 4.15500436 -2.62054272 2.05866059 0 0 Z " fill="#3D3D3D" transform="translate(254,769)"/>
<path d="M0 0 C0.33 0.99 0.66 1.98 1 3 C-0.07983398 4.90112305 -0.07983398 4.90112305 -1.74609375 7.01171875 C-2.33583984 7.76904297 -2.92558594 8.52636719 -3.53320312 9.30664062 C-4.16162109 10.09232422 -4.79003906 10.87800781 -5.4375 11.6875 C-6.06205078 12.48478516 -6.68660156 13.28207031 -7.33007812 14.10351562 C-8.87768695 16.07642153 -10.43448744 18.04129188 -12 20 C-12 16.51577455 -11.36724479 15.74837038 -9.375 12.98828125 C-8.83359375 12.23095703 -8.2921875 11.47363281 -7.734375 10.69335938 C-7.16203125 9.90767578 -6.5896875 9.12199219 -6 8.3125 C-5.42765625 7.51521484 -4.8553125 6.71792969 -4.265625 5.89648438 C-2.84997529 3.92637187 -1.42794529 1.96120943 0 0 Z " fill="#757575" transform="translate(262,704)"/>
<path d="M0 0 C-0.66 0.474375 -1.32 0.94875 -2 1.4375 C-2.99 2.2109375 -2.99 2.2109375 -4 3 C-4 3.33 -4 3.66 -4 4 C-8.62 4.66 -13.24 5.32 -18 6 C-15.37972564 3.37972564 -12.42076703 2.51801127 -9 1.3125 C-8.03707031 0.95575195 -8.03707031 0.95575195 -7.0546875 0.59179688 C-2.2465087 -1.12325435 -2.2465087 -1.12325435 0 0 Z " fill="#494949" transform="translate(251,805)"/>
<path d="M0 0 C1.90756031 7.25803433 0.62781148 11.61893874 -3 18 C-4.63129887 13.93714243 -3.29968777 10.79897816 -2.0625 6.75 C-1.68222656 5.48671875 -1.30195313 4.2234375 -0.91015625 2.921875 C-0.60980469 1.95765625 -0.30945313 0.9934375 0 0 Z " fill="#525252" transform="translate(200,766)"/>
<path d="M0 0 C0.66 0.33 1.32 0.66 2 1 C0.02 2.98 -1.96 4.96 -4 7 C-3.67 7.66 -3.34 8.32 -3 9 C-5.475 10.485 -5.475 10.485 -8 12 C-8.33 11.01 -8.66 10.02 -9 9 C-6.03 6.03 -3.06 3.06 0 0 Z " fill="#393939" transform="translate(357,639)"/>
<path d="M0 0 C0.33 0.66 0.66 1.32 1 2 C1.66 2.33 2.32 2.66 3 3 C1.38405168 5.04119788 -0.2856382 7.04072937 -2 9 C-2.66 9 -3.32 9 -4 9 C-2.25 2.25 -2.25 2.25 0 0 Z " fill="#2B2B2B" transform="translate(276,685)"/>
<path d="M0 0 C-0.51241107 6.02900687 -1.069785 12.02004643 -2 18 C-2.33 18 -2.66 18 -3 18 C-3.09038099 12.84828377 -2.84681133 8.08086796 -2 3 C-2.66 2.67 -3.32 2.34 -4 2 C-1 0 -1 0 0 0 Z " fill="#636363" transform="translate(570,193)"/>
<path d="M0 0 C0.66 0.33 1.32 0.66 2 1 C1.50628906 1.43570312 1.01257813 1.87140625 0.50390625 2.3203125 C-3.73531982 6.21395104 -3.73531982 6.21395104 -5.9375 11.4375 C-5.958125 12.283125 -5.97875 13.12875 -6 14 C-6.33 14 -6.66 14 -7 14 C-7.61658031 8.89119171 -7.61658031 8.89119171 -7 6 C-4.96073101 3.55696597 -2.63153386 1.7722575 0 0 Z " fill="#3B3B3B" transform="translate(268,379)"/>
</svg>
